<svg xmlns="http://www.w3.org/2000/svg" aria-hidden="true" style="position: absolute; width: 0; height: 0; overflow: hidden;">
  <defs>
    <symbol id="icon-antenna" viewBox="0 0 16 16">
      <path fill="#2e2f42" d="M15.39 11.05 11.16 6.8l.47-2.31a1.08 1.08 0 1 0-.62-.64l-2.48.3L4.5.08C4.44.03 4.37 0 4.29 0s-.13.03-.18.08l-.76.75c-.1.1-.1.27 0 .38l.41.41A7.47 7.47 0 0 0 5.1 10.5l-.02.27v3.1h-3.2c-.74 0-1.33.6-1.33 1.33v.53c0 .15.11.27.26.27h12.27c.15 0 .27-.12.27-.27v-.53c0-.74-.6-1.33-1.34-1.33H8.8V12.5a7.5 7.5 0 0 0 5.05-.74l.4.42c.06.05.12.07.2.08s.13-.03.18-.08l.76-.75c.1-.1.1-.28 0-.38zm-3.75-7.93a.53.53 0 1 1 .38.9.53.53 0 0 1-.38-.9zm-.63 1.75-.3 1.47-.58-.59.88-.88zm-.3-.45-.96.95L9 4.62l1.7-.2zM12 14.4c.43 0 .8.36.8.8v.27H1.06v-.27c0-.44.36-.8.8-.8H12zm-3.74-1.07v.54H5.6v-.54h2.67zM5.6 12.8v-2.03c0-.64.6-1.17 1.34-1.17s1.33.53 1.33 1.17v2.03H5.6zm3.2-.85v-1.18c0-.94-.84-1.7-1.87-1.7a1.9 1.9 0 0 0-1.64.89A6.93 6.93 0 0 1 4.15 2l9.3 9.36a6.91 6.91 0 0 1-4.65.58zm5.65-.34L3.92 1.02l.37-.38 3.97 4 6.56 6.6-.37.37z" style="fill: var(--color1, #2e2f42)"/>
      <path fill="#4d5ae5" d="M6.94 10.13a.8.8 0 1 0 0 1.6.8.8 0 1 0 0-1.6zm.18 1a.27.27 0 1 1-.19-.46.27.27 0 0 1 .2.45z" style="fill: var(--color2, #4d5ae5)"/>
    </symbol>
    <symbol id="icon-astronaut" viewBox="0 0 16 16">
      <path fill="#4d5ae5" d="M15.99 2.26a.27.27 0 0 0-.22-.18l-.95-.14-.43-.86c-.09-.19-.39-.19-.48 0l-.42.86-.96.14a.27.27 0 0 0-.15.46l.7.67-.17.95c-.02.1.02.2.1.26.09.06.2.07.29.02l.85-.45.86.45a.26.26 0 0 0 .28-.02.27.27 0 0 0 .1-.26l-.16-.95.69-.68c.07-.07.1-.17.07-.27zm-1.23.67a.27.27 0 0 0-.08.23l.1.56-.5-.27a.26.26 0 0 0-.25 0l-.5.27.1-.56a.27.27 0 0 0-.09-.24l-.4-.39.56-.08a.27.27 0 0 0 .2-.15l.25-.5.25.5c.04.08.11.14.2.15l.56.08-.4.4zm-1.69 7.33h-.54v.53h.54v-.53zm0 1.07h-.54v.53h.54v-.53zm.53-.53h-.53v.53h.53v-.54zm-1.07 0H12v.53h.53v-.54zm-1.33 2.4h-.53v.53h.53v-.54zm0 1.06h-.53v.53h.53v-.53zm.53-.53h-.53v.53h.53v-.53zm-1.06 0h-.54v.53h.54v-.53zM8 12.13h-.53v.53H8v-.53zm0 1.07h-.53v.53H8v-.54zm.53-.54H8v.53h.53v-.53zm-1.06 0h-.54v.53h.54v-.53zm-4.54-9.6H2.4v.53h.53v-.53zm0 1.07H2.4v.53h.53v-.53zm.54-.53h-.54v.53h.54v-.54zm-1.07 0h-.53v.53h.53v-.54z" style="fill: var(--color2, #4d5ae5)"/>
      <path fill="#2e2f42" d="M12.36 7.08a.89.89 0 0 0-.6-.35.89.89 0 0 0-.67.17l-.62.48-.95.71-.68-.27A3.47 3.47 0 0 0 7.42 1.2a3.48 3.48 0 0 0-2.93 5.34l-1.38-.01H3.1c-.03 0-.05 0-.08.02H3l-1.63.8-.94.46a.9.9 0 0 0 .89 1.55L2 8.99l1.13-.59h.68L1.1 11.1l-.67.67a.82.82 0 0 0 0 1.18.83.83 0 0 0 1.18 0l.65-.65.87-.65.45.45-.88.87-.67.67a.82.82 0 0 0 0 1.18.83.83 0 0 0 1.18 0l1.74-1.73.51-.5v-.01l2.6-2.83 1.73.24a.24.24 0 0 0 .16-.02l.02-.02 1.61-1.06.02-.02.02-.01.63-.6a.89.89 0 0 0 .1-1.18zm-11.3 1.8c-.08.05-.18.06-.27.03s-.17-.1-.22-.18a.36.36 0 0 1 .11-.45l.66-.32.22.66-.5.26zm1.75-.9-.77.4-.22-.65 1.01-.5-.02.74zm7.55-3.32c0 .46-.1.9-.3 1.28L7.97 5a.93.93 0 0 0-.4-.7l.74-2.42a2.94 2.94 0 0 1 2.05 2.8zm-5.9 0a2.94 2.94 0 0 1 3.33-2.9l-.72 2.37h-.03c-.51 0-.93.42-.93.93s.42.93.93.93c.35 0 .65-.19.81-.47l1.93.88a2.95 2.95 0 0 1-5.31-1.74zm2.99.4c0 .22-.18.4-.4.4s-.4-.18-.4-.4c0-.22.17-.4.4-.4s.4.18.4.4zm-6.22 7.51a.3.3 0 0 1-.42 0 .3.3 0 0 1 0-.42l.48-.48.42.43-.48.47zm1.6 1.87a.3.3 0 0 1-.42 0 .3.3 0 0 1 0-.42l.48-.48.43.42-.48.48zm1.75-1.73-.88.88-.43-.43.88-.88a.25.25 0 0 0 .05-.06l.01-.02.01-.07.01-.03v-.06L4.2 12a.25.25 0 0 0-.04-.06l-.02-.02-.8-.8-.03-.02-.04-.03-.05-.02h-.14c-.02 0-.03.02-.05.03H3l-.88.67-.45-.45 1.2-1.2 2.18 2.15-.47.46zM7.99 9.2h-.08l-.04.01a.27.27 0 0 0-.1.06l-.01.01-2.35 2.57-2.17-2.12 1.42-1.41a.27.27 0 0 0-.2-.46h-1.1l.01-.8 1.56.02a3.48 3.48 0 0 0 3.13.99l.06.04 1.2.48.08.38.1.44L8 9.2zm2.02.09-.16-.78.73-.54.47.62-1.04.7zm1.88-1.42-.42.4-.47-.62.42-.32a.36.36 0 0 1 .5.07c.12.14.1.35-.03.47z" style="fill: var(--color1, #2e2f42)"/>
      <path fill="#2e2f42" d="M6.8 9.27 5.73 8.21a.27.27 0 0 0-.38 0L4.28 9.27a.27.27 0 0 0 0 .38l1.07 1.07a.27.27 0 0 0 .38 0L6.8 9.65a.27.27 0 0 0 0-.38zm-1.26.88-.7-.69.7-.69.7.7-.7.68zm3.04-7.61-.13.51c.04.01.87.23.87 1.08h.54c0-1.01-.84-1.49-1.28-1.6zm1.28 2.12h-.54v.53h.54v-.53z" style="fill: var(--color1, #2e2f42)"/>
    </symbol>
    <symbol id="icon-clock" viewBox="0 0 16 16">
      <path fill="#2e2f42" d="M15.65 7.65a7.65 7.65 0 1 0-9.89 7.3c.06 0 .12-.01.17-.04.07-.04.12-.1.14-.18l1.94-6.12a.96.96 0 1 0-.42-1.82L5.03 4.24a.32.32 0 0 0-.45.45l2.56 2.55c-.2.4-.09.88.26 1.16l-1.84 5.83a7.02 7.02 0 1 1 5.29-.17l-.2-.94a.32.32 0 0 0-.53-.17l-1.91 1.71a.32.32 0 0 0 .11.54l2.45.79a.32.32 0 0 0 .41-.37l-.2-.92a7.63 7.63 0 0 0 4.67-7.05zM8 7.33a.32.32 0 1 1 0 .64.32.32 0 0 1 0-.64zm1.05 7.43 1.09-.97.3 1.42-1.4-.45z" style="fill: var(--color1, #2e2f42)"/>
      <path fill="#4d5ae5" d="M7.68 1.6v.63a.32.32 0 0 0 .63 0V1.6a.32.32 0 0 0-.63 0zM1.94 7.33a.32.32 0 0 0 0 .64h.64a.32.32 0 0 0 0-.64h-.64zm12.11.64a.32.32 0 0 0 0-.64h-.63a.32.32 0 0 0 0 .64h.63z" style="fill: var(--color2, #4d5ae5)"/>
    </symbol>
    <symbol id="icon-diagram" viewBox="0 0 16 16">
      <path fill="#4d5ae5" d="M7.46 7.48H8v2.4h-.54v-2.4zM9.6 8.55h.53v1.33h-.54V8.55zm-4.27.8h.53v.53h-.53v-.53zm-1.6-.27h.53v.8h-.53v-.8z" style="fill: var(--color2, #4d5ae5)"/>
      <path fill="#2e2f42" d="M.8 14.14h12.8a.8.8 0 0 0 .8-.8v-1.06a.8.8 0 0 0-.8-.8h-.27V4.83l1.51-1.43a.8.8 0 1 0-.37-.38L13.33 4.1v-.62a.8.8 0 0 0-.8-.8H1.87a.8.8 0 0 0-.8.8v8H.8a.8.8 0 0 0-.8.8v1.06c0 .45.36.8.8.8zM15.2 2.42a.27.27 0 1 1 0 .53.27.27 0 0 1 0-.53zM1.6 3.48c0-.14.12-.26.27-.26h10.66c.14 0 .26.12.26.26V4.6l-.53.51v-1.1a.27.27 0 0 0-.27-.26H2.4a.27.27 0 0 0-.26.27v6.66c0 .15.12.27.27.27H12c.14 0 .26-.12.26-.27V5.84l.53-.5v6.14H1.6v-8zM4 6.95a.8.8 0 1 0 .55 1.37l.93.47c.1.05.24.03.32-.06L7.76 6.5 9.7 7.96c.1.08.25.07.34-.02l1.69-1.6v4.07H2.67V4.28h9.06v1.33L9.84 7.4 7.9 5.94a.27.27 0 0 0-.36.03l-2 2.25-.74-.38v-.1a.8.8 0 0 0-.8-.8zm.26.8a.27.27 0 1 1-.53 0 .27.27 0 0 1 .53 0zM5.86 12h2.67v.27c0 .15-.12.27-.27.27H6.13a.27.27 0 0 1-.27-.27V12zm-5.33.27c0-.15.12-.27.27-.27h4.53v.27c0 .44.36.8.8.8h2.13a.8.8 0 0 0 .8-.8V12h4.53c.15 0 .27.12.27.27v1.07c0 .14-.12.26-.27.26H.8a.27.27 0 0 1-.27-.26v-1.07z" style="fill: var(--color1, #2e2f42)"/>
    </symbol>
    <symbol id="icon-facebook" viewBox="0 0 16 16">
      <path fill="#f4f4fd" d="M10.66 2.66h1.47V.1C11.87.08 11 0 10 0 7.9 0 6.45 1.32 6.45 3.76V6H4.12v2.84h2.33V16H9.3V8.84h2.23L11.88 6H9.3V4.04c0-.82.22-1.38 1.36-1.38z" style="fill: var(--color3, #f4f4fd)"/>
    </symbol>
    <symbol id="icon-instagram" viewBox="0 0 16 16">
      <path fill="#f4f4fd" d="M15.98 4.7a5.83 5.83 0 0 0-.37-1.94 3.9 3.9 0 0 0-.92-1.42c-.4-.4-.89-.72-1.42-.92a5.8 5.8 0 0 0-1.94-.37C10.47.01 10.2 0 8.03 0s-2.45 0-3.3.05A5.5 5.5 0 0 0 2.8.42a3.9 3.9 0 0 0-1.42.92c-.4.4-.72.89-.92 1.42-.2.51-.34 1.1-.37 1.94C.04 5.56.03 5.83.03 8s0 2.45.04 3.3c.04.85.18 1.43.38 1.94a4.05 4.05 0 0 0 2.34 2.34c.5.2 1.09.34 1.94.37.85.04 1.12.05 3.3.05s2.44 0 3.3-.05a5.83 5.83 0 0 0 1.93-.37 4.1 4.1 0 0 0 2.35-2.34c.2-.5.33-1.09.37-1.94.04-.85.04-1.13.04-3.3s0-2.44-.04-3.3zm-1.44 6.54a4.4 4.4 0 0 1-.27 1.48c-.27.7-.82 1.25-1.52 1.52-.28.1-.7.24-1.49.28-.84.03-1.1.04-3.23.04s-2.39 0-3.23-.04a4.4 4.4 0 0 1-1.49-.28 2.45 2.45 0 0 1-.91-.6 2.48 2.48 0 0 1-.6-.92 4.4 4.4 0 0 1-.28-1.48c-.03-.84-.04-1.1-.04-3.23s0-2.4.04-3.23c.04-.79.17-1.2.28-1.49.13-.35.33-.66.6-.92.26-.26.57-.47.92-.6.28-.1.7-.24 1.48-.27.85-.04 1.1-.05 3.24-.05 2.13 0 2.39.01 3.23.05.78.03 1.2.17 1.48.27.35.13.66.34.92.6.27.26.47.57.6.92.1.28.24.7.27 1.49.04.84.05 1.1.05 3.23s0 2.38-.05 3.23z" style="fill: var(--color3, #f4f4fd)"/>
      <path fill="#f4f4fd" d="M8.03 3.9a4.11 4.11 0 1 0 0 8.21 4.11 4.11 0 0 0 0-8.22zm0 6.77a2.67 2.67 0 1 1 0-5.34 2.67 2.67 0 0 1 0 5.34zm5.23-6.94a.96.96 0 1 1-1.92 0 .96.96 0 0 1 1.92 0z" style="fill: var(--color3, #f4f4fd)"/>
    </symbol>
    <symbol id="icon-linkedin" viewBox="0 0 16 16">
      <path fill="#f4f4fd" d="M16 16v-5.87c0-2.87-.62-5.08-3.97-5.08-1.62 0-2.7.88-3.14 1.72h-.05V5.32H5.66V16h3.31v-5.3c0-1.4.27-2.74 2-2.74 1.69 0 1.72 1.59 1.72 2.83V16h3.3zM.26 5.32h3.32V16H.26V5.32zM1.92 0C.86 0 0 .86 0 1.92s.86 1.94 1.92 1.94 1.92-.88 1.92-1.94S2.98 0 1.92 0z" style="fill: var(--color3, #f4f4fd)"/>
    </symbol>
    <symbol id="icon-twitter" viewBox="0 0 16 16">
      <path fill="#f4f4fd" d="M16 3.04c-.6.26-1.23.43-1.89.52.68-.4 1.2-1.05 1.44-1.82-.63.38-1.33.65-2.08.8a3.29 3.29 0 0 0-5.6 2.99A9.28 9.28 0 0 1 1.11 2.1a3.3 3.3 0 0 0 1.01 4.38 3.24 3.24 0 0 1-1.48-.4v.03a3.3 3.3 0 0 0 2.63 3.23 3.27 3.27 0 0 1-1.48.05 3.31 3.31 0 0 0 3.06 2.28A6.6 6.6 0 0 1 0 13.03a9.23 9.23 0 0 0 5.03 1.47c6.04 0 9.34-5 9.34-9.33l-.01-.43A6.54 6.54 0 0 0 16 3.04z" style="fill: var(--color3, #f4f4fd)"/>
    </symbol>
  </defs>
</svg>
